<mxfile host="app.diagrams.net" agent="Mozilla/5.0 (Windows NT 10.0; Win64; x64) AppleWebKit/537.36 (KHTML, like Gecko) Chrome/131.0.0.0 Safari/537.36 Edg/131.0.0.0" version="25.0.3">
  <diagram name="第 1 页" id="PTmJzj0BuP0xEbIJYruy">
    <mxGraphModel dx="6531" dy="2988" grid="1" gridSize="10" guides="1" tooltips="1" connect="1" arrows="1" fold="1" page="1" pageScale="1" pageWidth="827" pageHeight="1169" math="0" shadow="0">
      <root>
        <mxCell id="0" />
        <mxCell id="1" parent="0" />
        <mxCell id="300kg0JLQjdH8oxCRaky-1" value="生单占座" style="rounded=1;whiteSpace=wrap;html=1;" vertex="1" parent="1">
          <mxGeometry x="-680" y="50" width="120" height="60" as="geometry" />
        </mxCell>
        <mxCell id="300kg0JLQjdH8oxCRaky-2" value="导单占座" style="rounded=1;whiteSpace=wrap;html=1;" vertex="1" parent="1">
          <mxGeometry x="-470" y="50" width="120" height="60" as="geometry" />
        </mxCell>
        <mxCell id="300kg0JLQjdH8oxCRaky-54" value="" style="edgeStyle=orthogonalEdgeStyle;rounded=0;orthogonalLoop=1;jettySize=auto;html=1;" edge="1" parent="1" source="300kg0JLQjdH8oxCRaky-3" target="300kg0JLQjdH8oxCRaky-53">
          <mxGeometry relative="1" as="geometry" />
        </mxCell>
        <mxCell id="300kg0JLQjdH8oxCRaky-3" value="延续占座" style="rounded=1;whiteSpace=wrap;html=1;" vertex="1" parent="1">
          <mxGeometry x="130" y="50" width="120" height="60" as="geometry" />
        </mxCell>
        <mxCell id="300kg0JLQjdH8oxCRaky-10" style="edgeStyle=orthogonalEdgeStyle;rounded=0;orthogonalLoop=1;jettySize=auto;html=1;entryX=0.5;entryY=0;entryDx=0;entryDy=0;" edge="1" parent="1" source="300kg0JLQjdH8oxCRaky-5" target="300kg0JLQjdH8oxCRaky-9">
          <mxGeometry relative="1" as="geometry" />
        </mxCell>
        <mxCell id="300kg0JLQjdH8oxCRaky-5" value="占座程序" style="rounded=1;whiteSpace=wrap;html=1;" vertex="1" parent="1">
          <mxGeometry x="-470" y="230" width="120" height="60" as="geometry" />
        </mxCell>
        <mxCell id="300kg0JLQjdH8oxCRaky-13" value="" style="edgeStyle=orthogonalEdgeStyle;rounded=0;orthogonalLoop=1;jettySize=auto;html=1;" edge="1" parent="1" source="300kg0JLQjdH8oxCRaky-7" target="300kg0JLQjdH8oxCRaky-65">
          <mxGeometry relative="1" as="geometry">
            <mxPoint x="-410" y="650" as="targetPoint" />
          </mxGeometry>
        </mxCell>
        <mxCell id="300kg0JLQjdH8oxCRaky-7" value="判断是否分开占座" style="rhombus;whiteSpace=wrap;html=1;rounded=1;fillColor=#d5e8d4;strokeColor=#82b366;" vertex="1" parent="1">
          <mxGeometry x="-450" y="480" width="80" height="80" as="geometry" />
        </mxCell>
        <mxCell id="300kg0JLQjdH8oxCRaky-11" value="" style="edgeStyle=orthogonalEdgeStyle;rounded=0;orthogonalLoop=1;jettySize=auto;html=1;" edge="1" parent="1" source="300kg0JLQjdH8oxCRaky-9" target="300kg0JLQjdH8oxCRaky-7">
          <mxGeometry relative="1" as="geometry" />
        </mxCell>
        <mxCell id="300kg0JLQjdH8oxCRaky-9" value="占座复用判断&lt;div&gt;分开占占座复用&lt;/div&gt;" style="rounded=1;whiteSpace=wrap;html=1;fillColor=#d5e8d4;strokeColor=#82b366;" vertex="1" parent="1">
          <mxGeometry x="-470" y="360" width="120" height="60" as="geometry" />
        </mxCell>
        <mxCell id="300kg0JLQjdH8oxCRaky-27" value="" style="edgeStyle=orthogonalEdgeStyle;rounded=0;orthogonalLoop=1;jettySize=auto;html=1;" edge="1" parent="1" source="300kg0JLQjdH8oxCRaky-25" target="300kg0JLQjdH8oxCRaky-26">
          <mxGeometry relative="1" as="geometry" />
        </mxCell>
        <mxCell id="300kg0JLQjdH8oxCRaky-25" value="占座结果" style="rounded=1;whiteSpace=wrap;html=1;" vertex="1" parent="1">
          <mxGeometry x="563" y="50" width="120" height="60" as="geometry" />
        </mxCell>
        <mxCell id="300kg0JLQjdH8oxCRaky-29" value="" style="edgeStyle=orthogonalEdgeStyle;rounded=0;orthogonalLoop=1;jettySize=auto;html=1;" edge="1" parent="1" source="300kg0JLQjdH8oxCRaky-26" target="300kg0JLQjdH8oxCRaky-28">
          <mxGeometry relative="1" as="geometry" />
        </mxCell>
        <mxCell id="300kg0JLQjdH8oxCRaky-26" value="占座成功/失败" style="rhombus;whiteSpace=wrap;html=1;rounded=1;" vertex="1" parent="1">
          <mxGeometry x="583" y="190" width="80" height="80" as="geometry" />
        </mxCell>
        <mxCell id="300kg0JLQjdH8oxCRaky-32" value="" style="edgeStyle=orthogonalEdgeStyle;rounded=0;orthogonalLoop=1;jettySize=auto;html=1;" edge="1" parent="1" source="300kg0JLQjdH8oxCRaky-28" target="300kg0JLQjdH8oxCRaky-31">
          <mxGeometry relative="1" as="geometry" />
        </mxCell>
        <mxCell id="300kg0JLQjdH8oxCRaky-28" value="占座成功" style="whiteSpace=wrap;html=1;rounded=1;" vertex="1" parent="1">
          <mxGeometry x="563" y="360" width="120" height="60" as="geometry" />
        </mxCell>
        <mxCell id="300kg0JLQjdH8oxCRaky-34" value="" style="edgeStyle=orthogonalEdgeStyle;rounded=0;orthogonalLoop=1;jettySize=auto;html=1;" edge="1" parent="1" source="300kg0JLQjdH8oxCRaky-31" target="300kg0JLQjdH8oxCRaky-33">
          <mxGeometry relative="1" as="geometry" />
        </mxCell>
        <mxCell id="300kg0JLQjdH8oxCRaky-36" value="" style="edgeStyle=orthogonalEdgeStyle;rounded=0;orthogonalLoop=1;jettySize=auto;html=1;" edge="1" parent="1" target="300kg0JLQjdH8oxCRaky-35">
          <mxGeometry relative="1" as="geometry">
            <mxPoint x="644" y="520" as="sourcePoint" />
          </mxGeometry>
        </mxCell>
        <mxCell id="300kg0JLQjdH8oxCRaky-31" value="单程/往返" style="rhombus;whiteSpace=wrap;html=1;rounded=1;" vertex="1" parent="1">
          <mxGeometry x="583" y="490" width="80" height="80" as="geometry" />
        </mxCell>
        <mxCell id="300kg0JLQjdH8oxCRaky-38" value="" style="edgeStyle=orthogonalEdgeStyle;rounded=0;orthogonalLoop=1;jettySize=auto;html=1;" edge="1" parent="1" source="300kg0JLQjdH8oxCRaky-33" target="300kg0JLQjdH8oxCRaky-37">
          <mxGeometry relative="1" as="geometry" />
        </mxCell>
        <mxCell id="300kg0JLQjdH8oxCRaky-47" value="分开占" style="edgeLabel;html=1;align=center;verticalAlign=middle;resizable=0;points=[];" vertex="1" connectable="0" parent="300kg0JLQjdH8oxCRaky-38">
          <mxGeometry x="0.2512" relative="1" as="geometry">
            <mxPoint as="offset" />
          </mxGeometry>
        </mxCell>
        <mxCell id="300kg0JLQjdH8oxCRaky-45" value="" style="edgeStyle=orthogonalEdgeStyle;rounded=0;orthogonalLoop=1;jettySize=auto;html=1;" edge="1" parent="1" source="300kg0JLQjdH8oxCRaky-33" target="300kg0JLQjdH8oxCRaky-44">
          <mxGeometry relative="1" as="geometry" />
        </mxCell>
        <mxCell id="300kg0JLQjdH8oxCRaky-46" value="一起占" style="edgeLabel;html=1;align=center;verticalAlign=middle;resizable=0;points=[];" vertex="1" connectable="0" parent="300kg0JLQjdH8oxCRaky-45">
          <mxGeometry x="0.0444" y="4" relative="1" as="geometry">
            <mxPoint as="offset" />
          </mxGeometry>
        </mxCell>
        <mxCell id="300kg0JLQjdH8oxCRaky-33" value="多人分开占座" style="rhombus;whiteSpace=wrap;html=1;rounded=1;fillColor=#d5e8d4;strokeColor=#82b366;" vertex="1" parent="1">
          <mxGeometry x="493" y="600" width="80" height="80" as="geometry" />
        </mxCell>
        <mxCell id="300kg0JLQjdH8oxCRaky-35" value="单程/往返" style="rhombus;whiteSpace=wrap;html=1;rounded=1;" vertex="1" parent="1">
          <mxGeometry x="813" y="610" width="80" height="80" as="geometry" />
        </mxCell>
        <mxCell id="300kg0JLQjdH8oxCRaky-50" value="" style="edgeStyle=orthogonalEdgeStyle;rounded=0;orthogonalLoop=1;jettySize=auto;html=1;" edge="1" parent="1" source="300kg0JLQjdH8oxCRaky-37" target="300kg0JLQjdH8oxCRaky-49">
          <mxGeometry relative="1" as="geometry" />
        </mxCell>
        <mxCell id="300kg0JLQjdH8oxCRaky-37" value="查询占座记录&lt;div&gt;查询占座成功的占座记录&lt;/div&gt;&lt;div&gt;并且 占座时限小于当前时间&lt;/div&gt;&lt;div&gt;&lt;br&gt;&lt;/div&gt;&lt;div&gt;计算有效占座记录中人数，（根据姓名去重）&lt;/div&gt;&lt;div&gt;再判断当前占座记录中人数，若等于订单总人数，占座全部成功，&lt;/div&gt;&lt;div&gt;否则占座部分成功。&lt;/div&gt;&lt;div&gt;&lt;br&gt;&lt;/div&gt;" style="whiteSpace=wrap;html=1;rounded=1;fillColor=#d5e8d4;strokeColor=#82b366;" vertex="1" parent="1">
          <mxGeometry x="340" y="750" width="133" height="200" as="geometry" />
        </mxCell>
        <mxCell id="300kg0JLQjdH8oxCRaky-52" value="" style="edgeStyle=orthogonalEdgeStyle;rounded=0;orthogonalLoop=1;jettySize=auto;html=1;" edge="1" parent="1" source="300kg0JLQjdH8oxCRaky-44" target="300kg0JLQjdH8oxCRaky-51">
          <mxGeometry relative="1" as="geometry" />
        </mxCell>
        <mxCell id="300kg0JLQjdH8oxCRaky-44" value="设置全部占座成功07" style="whiteSpace=wrap;html=1;rounded=1;" vertex="1" parent="1">
          <mxGeometry x="583" y="750" width="120" height="60" as="geometry" />
        </mxCell>
        <mxCell id="300kg0JLQjdH8oxCRaky-49" value="占座全部成功时，&lt;div&gt;加入低舱任务&lt;/div&gt;" style="whiteSpace=wrap;html=1;rounded=1;fillColor=#d5e8d4;strokeColor=#82b366;" vertex="1" parent="1">
          <mxGeometry x="346.5" y="1100" width="120" height="60" as="geometry" />
        </mxCell>
        <mxCell id="300kg0JLQjdH8oxCRaky-51" value="占座全部成功时，&lt;div&gt;加入低舱任务&lt;/div&gt;" style="whiteSpace=wrap;html=1;rounded=1;" vertex="1" parent="1">
          <mxGeometry x="583" y="890" width="120" height="60" as="geometry" />
        </mxCell>
        <mxCell id="300kg0JLQjdH8oxCRaky-56" value="" style="edgeStyle=orthogonalEdgeStyle;rounded=0;orthogonalLoop=1;jettySize=auto;html=1;" edge="1" parent="1" source="300kg0JLQjdH8oxCRaky-53" target="300kg0JLQjdH8oxCRaky-55">
          <mxGeometry relative="1" as="geometry" />
        </mxCell>
        <mxCell id="300kg0JLQjdH8oxCRaky-53" value="扫描占座全部成功&lt;div&gt;非极速订单&lt;/div&gt;&lt;div&gt;单程&lt;/div&gt;&lt;div&gt;亚航判断了必须是低舱&lt;/div&gt;&lt;div&gt;&lt;br&gt;&lt;/div&gt;" style="whiteSpace=wrap;html=1;rounded=1;" vertex="1" parent="1">
          <mxGeometry x="100" y="200" width="180" height="90" as="geometry" />
        </mxCell>
        <mxCell id="300kg0JLQjdH8oxCRaky-58" value="" style="edgeStyle=orthogonalEdgeStyle;rounded=0;orthogonalLoop=1;jettySize=auto;html=1;" edge="1" parent="1" source="300kg0JLQjdH8oxCRaky-55" target="300kg0JLQjdH8oxCRaky-57">
          <mxGeometry relative="1" as="geometry" />
        </mxCell>
        <mxCell id="300kg0JLQjdH8oxCRaky-55" value="遍历符合条件的订单" style="whiteSpace=wrap;html=1;rounded=1;fillColor=#d5e8d4;strokeColor=#82b366;" vertex="1" parent="1">
          <mxGeometry x="130" y="385" width="120" height="60" as="geometry" />
        </mxCell>
        <mxCell id="300kg0JLQjdH8oxCRaky-60" value="" style="edgeStyle=orthogonalEdgeStyle;rounded=0;orthogonalLoop=1;jettySize=auto;html=1;" edge="1" parent="1" source="300kg0JLQjdH8oxCRaky-57" target="300kg0JLQjdH8oxCRaky-59">
          <mxGeometry relative="1" as="geometry" />
        </mxCell>
        <mxCell id="300kg0JLQjdH8oxCRaky-57" value="拆分事务" style="whiteSpace=wrap;html=1;rounded=1;fillColor=#d5e8d4;strokeColor=#82b366;" vertex="1" parent="1">
          <mxGeometry x="130" y="525" width="120" height="60" as="geometry" />
        </mxCell>
        <mxCell id="300kg0JLQjdH8oxCRaky-62" value="" style="edgeStyle=orthogonalEdgeStyle;rounded=0;orthogonalLoop=1;jettySize=auto;html=1;" edge="1" parent="1" source="300kg0JLQjdH8oxCRaky-59" target="300kg0JLQjdH8oxCRaky-61">
          <mxGeometry relative="1" as="geometry" />
        </mxCell>
        <mxCell id="300kg0JLQjdH8oxCRaky-59" value="根据订单查询符合条件的占座记录" style="whiteSpace=wrap;html=1;rounded=1;fillColor=#d5e8d4;strokeColor=#82b366;" vertex="1" parent="1">
          <mxGeometry x="130" y="665" width="120" height="60" as="geometry" />
        </mxCell>
        <mxCell id="300kg0JLQjdH8oxCRaky-64" value="" style="edgeStyle=orthogonalEdgeStyle;rounded=0;orthogonalLoop=1;jettySize=auto;html=1;" edge="1" parent="1" source="300kg0JLQjdH8oxCRaky-61" target="300kg0JLQjdH8oxCRaky-63">
          <mxGeometry relative="1" as="geometry" />
        </mxCell>
        <mxCell id="300kg0JLQjdH8oxCRaky-61" value="把需要延续的占座记录，加入map" style="whiteSpace=wrap;html=1;rounded=1;fillColor=#d5e8d4;strokeColor=#82b366;" vertex="1" parent="1">
          <mxGeometry x="130" y="805" width="120" height="60" as="geometry" />
        </mxCell>
        <mxCell id="300kg0JLQjdH8oxCRaky-63" value="循环发起延续占座记录，订单状态占座中" style="whiteSpace=wrap;html=1;rounded=1;fillColor=#d5e8d4;strokeColor=#82b366;" vertex="1" parent="1">
          <mxGeometry x="130" y="945" width="120" height="60" as="geometry" />
        </mxCell>
        <mxCell id="300kg0JLQjdH8oxCRaky-67" style="edgeStyle=orthogonalEdgeStyle;rounded=0;orthogonalLoop=1;jettySize=auto;html=1;" edge="1" parent="1" source="300kg0JLQjdH8oxCRaky-65" target="300kg0JLQjdH8oxCRaky-66">
          <mxGeometry relative="1" as="geometry" />
        </mxCell>
        <mxCell id="300kg0JLQjdH8oxCRaky-65" value="若是订单状态为占座失败&lt;div&gt;判断当前乘客是否已经存在占座成功且小于占座时限的记录&lt;/div&gt;" style="rounded=1;whiteSpace=wrap;html=1;fillColor=#d5e8d4;strokeColor=#82b366;" vertex="1" parent="1">
          <mxGeometry x="-495" y="632.5" width="170" height="135" as="geometry" />
        </mxCell>
        <mxCell id="300kg0JLQjdH8oxCRaky-66" value="autoPaySeatForUnseat" style="whiteSpace=wrap;html=1;rounded=1;" vertex="1" parent="1">
          <mxGeometry x="-470" y="840" width="120" height="60" as="geometry" />
        </mxCell>
        <mxCell id="300kg0JLQjdH8oxCRaky-68" value="占座失败重发" style="rounded=1;whiteSpace=wrap;html=1;" vertex="1" parent="1">
          <mxGeometry x="-280" y="50" width="120" height="60" as="geometry" />
        </mxCell>
        <mxCell id="300kg0JLQjdH8oxCRaky-71" value="" style="edgeStyle=orthogonalEdgeStyle;rounded=0;orthogonalLoop=1;jettySize=auto;html=1;" edge="1" parent="1" source="300kg0JLQjdH8oxCRaky-69" target="300kg0JLQjdH8oxCRaky-70">
          <mxGeometry relative="1" as="geometry" />
        </mxCell>
        <mxCell id="300kg0JLQjdH8oxCRaky-69" value="加入低舱任务" style="rounded=1;whiteSpace=wrap;html=1;" vertex="1" parent="1">
          <mxGeometry x="2550" y="50" width="120" height="60" as="geometry" />
        </mxCell>
        <mxCell id="300kg0JLQjdH8oxCRaky-73" value="" style="edgeStyle=orthogonalEdgeStyle;rounded=0;orthogonalLoop=1;jettySize=auto;html=1;" edge="1" parent="1" source="300kg0JLQjdH8oxCRaky-70" target="300kg0JLQjdH8oxCRaky-72">
          <mxGeometry relative="1" as="geometry" />
        </mxCell>
        <mxCell id="300kg0JLQjdH8oxCRaky-70" value="跟随生单占座信息创建，取出符合条件的占座记录" style="rounded=1;whiteSpace=wrap;html=1;" vertex="1" parent="1">
          <mxGeometry x="2550" y="190" width="120" height="60" as="geometry" />
        </mxCell>
        <mxCell id="300kg0JLQjdH8oxCRaky-72" value="创建分开刷或者一起刷任务" style="rounded=1;whiteSpace=wrap;html=1;" vertex="1" parent="1">
          <mxGeometry x="2550" y="330" width="120" height="60" as="geometry" />
        </mxCell>
        <mxCell id="300kg0JLQjdH8oxCRaky-76" value="" style="edgeStyle=orthogonalEdgeStyle;rounded=0;orthogonalLoop=1;jettySize=auto;html=1;" edge="1" parent="1" source="300kg0JLQjdH8oxCRaky-74" target="300kg0JLQjdH8oxCRaky-75">
          <mxGeometry relative="1" as="geometry" />
        </mxCell>
        <mxCell id="300kg0JLQjdH8oxCRaky-74" value="低舱定时任务" style="rounded=1;whiteSpace=wrap;html=1;" vertex="1" parent="1">
          <mxGeometry x="3000" y="50" width="120" height="60" as="geometry" />
        </mxCell>
        <mxCell id="300kg0JLQjdH8oxCRaky-78" value="" style="edgeStyle=orthogonalEdgeStyle;rounded=0;orthogonalLoop=1;jettySize=auto;html=1;" edge="1" parent="1" source="300kg0JLQjdH8oxCRaky-75" target="300kg0JLQjdH8oxCRaky-77">
          <mxGeometry relative="1" as="geometry" />
        </mxCell>
        <mxCell id="300kg0JLQjdH8oxCRaky-75" value="定时任务走配置" style="rounded=1;whiteSpace=wrap;html=1;" vertex="1" parent="1">
          <mxGeometry x="3000" y="190" width="120" height="60" as="geometry" />
        </mxCell>
        <mxCell id="300kg0JLQjdH8oxCRaky-77" value="防止任务堆积重发" style="rounded=1;whiteSpace=wrap;html=1;" vertex="1" parent="1">
          <mxGeometry x="3000" y="330" width="120" height="60" as="geometry" />
        </mxCell>
        <mxCell id="300kg0JLQjdH8oxCRaky-83" value="" style="edgeStyle=orthogonalEdgeStyle;rounded=0;orthogonalLoop=1;jettySize=auto;html=1;" edge="1" parent="1" source="300kg0JLQjdH8oxCRaky-79" target="300kg0JLQjdH8oxCRaky-82">
          <mxGeometry relative="1" as="geometry" />
        </mxCell>
        <mxCell id="300kg0JLQjdH8oxCRaky-79" value="低舱结果" style="rounded=1;whiteSpace=wrap;html=1;" vertex="1" parent="1">
          <mxGeometry x="3720" y="50" width="120" height="60" as="geometry" />
        </mxCell>
        <mxCell id="300kg0JLQjdH8oxCRaky-85" value="" style="edgeStyle=orthogonalEdgeStyle;rounded=0;orthogonalLoop=1;jettySize=auto;html=1;" edge="1" parent="1" source="300kg0JLQjdH8oxCRaky-82" target="300kg0JLQjdH8oxCRaky-84">
          <mxGeometry relative="1" as="geometry" />
        </mxCell>
        <mxCell id="300kg0JLQjdH8oxCRaky-88" value="成功" style="edgeLabel;html=1;align=center;verticalAlign=middle;resizable=0;points=[];" vertex="1" connectable="0" parent="300kg0JLQjdH8oxCRaky-85">
          <mxGeometry x="-0.4" y="-3" relative="1" as="geometry">
            <mxPoint as="offset" />
          </mxGeometry>
        </mxCell>
        <mxCell id="300kg0JLQjdH8oxCRaky-87" value="" style="edgeStyle=orthogonalEdgeStyle;rounded=0;orthogonalLoop=1;jettySize=auto;html=1;" edge="1" parent="1" source="300kg0JLQjdH8oxCRaky-82" target="300kg0JLQjdH8oxCRaky-86">
          <mxGeometry relative="1" as="geometry" />
        </mxCell>
        <mxCell id="300kg0JLQjdH8oxCRaky-89" value="失败" style="edgeLabel;html=1;align=center;verticalAlign=middle;resizable=0;points=[];" vertex="1" connectable="0" parent="300kg0JLQjdH8oxCRaky-87">
          <mxGeometry x="0.3103" y="1" relative="1" as="geometry">
            <mxPoint as="offset" />
          </mxGeometry>
        </mxCell>
        <mxCell id="300kg0JLQjdH8oxCRaky-82" value="刷仓成功/失败" style="rhombus;whiteSpace=wrap;html=1;rounded=1;" vertex="1" parent="1">
          <mxGeometry x="3740" y="180" width="80" height="80" as="geometry" />
        </mxCell>
        <mxCell id="300kg0JLQjdH8oxCRaky-91" value="" style="edgeStyle=orthogonalEdgeStyle;rounded=0;orthogonalLoop=1;jettySize=auto;html=1;" edge="1" parent="1" source="300kg0JLQjdH8oxCRaky-84" target="300kg0JLQjdH8oxCRaky-90">
          <mxGeometry relative="1" as="geometry" />
        </mxCell>
        <mxCell id="300kg0JLQjdH8oxCRaky-84" value="保存占座记录" style="whiteSpace=wrap;html=1;rounded=1;" vertex="1" parent="1">
          <mxGeometry x="3720" y="350" width="120" height="60" as="geometry" />
        </mxCell>
        <mxCell id="300kg0JLQjdH8oxCRaky-105" value="" style="edgeStyle=orthogonalEdgeStyle;rounded=0;orthogonalLoop=1;jettySize=auto;html=1;" edge="1" parent="1" source="300kg0JLQjdH8oxCRaky-86" target="300kg0JLQjdH8oxCRaky-103">
          <mxGeometry relative="1" as="geometry" />
        </mxCell>
        <mxCell id="300kg0JLQjdH8oxCRaky-86" value="判断升舱/无座等情况&lt;div&gt;是否需要发起支付&lt;/div&gt;" style="whiteSpace=wrap;html=1;rounded=1;" vertex="1" parent="1">
          <mxGeometry x="3881" y="360" width="120" height="60" as="geometry" />
        </mxCell>
        <mxCell id="300kg0JLQjdH8oxCRaky-93" value="" style="edgeStyle=orthogonalEdgeStyle;rounded=0;orthogonalLoop=1;jettySize=auto;html=1;" edge="1" parent="1" source="300kg0JLQjdH8oxCRaky-90" target="300kg0JLQjdH8oxCRaky-92">
          <mxGeometry relative="1" as="geometry" />
        </mxCell>
        <mxCell id="300kg0JLQjdH8oxCRaky-96" value="继续刷" style="edgeLabel;html=1;align=center;verticalAlign=middle;resizable=0;points=[];" vertex="1" connectable="0" parent="300kg0JLQjdH8oxCRaky-93">
          <mxGeometry x="-0.2222" y="5" relative="1" as="geometry">
            <mxPoint as="offset" />
          </mxGeometry>
        </mxCell>
        <mxCell id="300kg0JLQjdH8oxCRaky-95" value="" style="edgeStyle=orthogonalEdgeStyle;rounded=0;orthogonalLoop=1;jettySize=auto;html=1;" edge="1" parent="1" source="300kg0JLQjdH8oxCRaky-90" target="300kg0JLQjdH8oxCRaky-94">
          <mxGeometry relative="1" as="geometry" />
        </mxCell>
        <mxCell id="300kg0JLQjdH8oxCRaky-97" value="成功支付" style="edgeLabel;html=1;align=center;verticalAlign=middle;resizable=0;points=[];" vertex="1" connectable="0" parent="300kg0JLQjdH8oxCRaky-95">
          <mxGeometry x="0.4118" y="1" relative="1" as="geometry">
            <mxPoint as="offset" />
          </mxGeometry>
        </mxCell>
        <mxCell id="300kg0JLQjdH8oxCRaky-90" value="判断继续刷" style="rhombus;whiteSpace=wrap;html=1;rounded=1;" vertex="1" parent="1">
          <mxGeometry x="3740" y="480" width="80" height="80" as="geometry" />
        </mxCell>
        <mxCell id="300kg0JLQjdH8oxCRaky-92" value="保存低舱日志" style="whiteSpace=wrap;html=1;rounded=1;" vertex="1" parent="1">
          <mxGeometry x="3720" y="650" width="120" height="60" as="geometry" />
        </mxCell>
        <mxCell id="300kg0JLQjdH8oxCRaky-99" value="" style="edgeStyle=orthogonalEdgeStyle;rounded=0;orthogonalLoop=1;jettySize=auto;html=1;" edge="1" parent="1" source="300kg0JLQjdH8oxCRaky-94" target="300kg0JLQjdH8oxCRaky-98">
          <mxGeometry relative="1" as="geometry" />
        </mxCell>
        <mxCell id="300kg0JLQjdH8oxCRaky-94" value="&lt;div&gt;删除低舱任务&lt;/div&gt;判断是否符合自动支付条件" style="whiteSpace=wrap;html=1;rounded=1;" vertex="1" parent="1">
          <mxGeometry x="3550" y="645" width="120" height="60" as="geometry" />
        </mxCell>
        <mxCell id="300kg0JLQjdH8oxCRaky-101" value="" style="edgeStyle=orthogonalEdgeStyle;rounded=0;orthogonalLoop=1;jettySize=auto;html=1;" edge="1" parent="1" source="300kg0JLQjdH8oxCRaky-98" target="300kg0JLQjdH8oxCRaky-100">
          <mxGeometry relative="1" as="geometry" />
        </mxCell>
        <mxCell id="300kg0JLQjdH8oxCRaky-98" value="符合条件发自动支付" style="whiteSpace=wrap;html=1;rounded=1;" vertex="1" parent="1">
          <mxGeometry x="3550" y="785" width="120" height="60" as="geometry" />
        </mxCell>
        <mxCell id="300kg0JLQjdH8oxCRaky-100" value="保存低舱日志" style="whiteSpace=wrap;html=1;rounded=1;" vertex="1" parent="1">
          <mxGeometry x="3550" y="900" width="120" height="60" as="geometry" />
        </mxCell>
        <mxCell id="300kg0JLQjdH8oxCRaky-102" value="" style="edgeStyle=orthogonalEdgeStyle;rounded=0;orthogonalLoop=1;jettySize=auto;html=1;" edge="1" parent="1" source="300kg0JLQjdH8oxCRaky-103" target="300kg0JLQjdH8oxCRaky-104">
          <mxGeometry relative="1" as="geometry" />
        </mxCell>
        <mxCell id="300kg0JLQjdH8oxCRaky-103" value="符合条件发自动支付" style="whiteSpace=wrap;html=1;rounded=1;" vertex="1" parent="1">
          <mxGeometry x="3881" y="500" width="120" height="60" as="geometry" />
        </mxCell>
        <mxCell id="300kg0JLQjdH8oxCRaky-104" value="保存低舱日志" style="whiteSpace=wrap;html=1;rounded=1;" vertex="1" parent="1">
          <mxGeometry x="3881" y="615" width="120" height="60" as="geometry" />
        </mxCell>
        <mxCell id="300kg0JLQjdH8oxCRaky-111" value="" style="edgeStyle=orthogonalEdgeStyle;rounded=0;orthogonalLoop=1;jettySize=auto;html=1;" edge="1" parent="1" source="300kg0JLQjdH8oxCRaky-112" target="300kg0JLQjdH8oxCRaky-117">
          <mxGeometry relative="1" as="geometry" />
        </mxCell>
        <mxCell id="300kg0JLQjdH8oxCRaky-112" value="自动支付" style="rounded=1;whiteSpace=wrap;html=1;" vertex="1" parent="1">
          <mxGeometry x="1180" y="50" width="120" height="60" as="geometry" />
        </mxCell>
        <mxCell id="300kg0JLQjdH8oxCRaky-113" value="" style="edgeStyle=orthogonalEdgeStyle;rounded=0;orthogonalLoop=1;jettySize=auto;html=1;" edge="1" parent="1" source="300kg0JLQjdH8oxCRaky-117" target="300kg0JLQjdH8oxCRaky-119">
          <mxGeometry relative="1" as="geometry" />
        </mxCell>
        <mxCell id="300kg0JLQjdH8oxCRaky-114" value="导单占座" style="edgeLabel;html=1;align=center;verticalAlign=middle;resizable=0;points=[];" vertex="1" connectable="0" parent="300kg0JLQjdH8oxCRaky-113">
          <mxGeometry x="-0.2" y="-1" relative="1" as="geometry">
            <mxPoint as="offset" />
          </mxGeometry>
        </mxCell>
        <mxCell id="300kg0JLQjdH8oxCRaky-115" value="" style="edgeStyle=orthogonalEdgeStyle;rounded=0;orthogonalLoop=1;jettySize=auto;html=1;" edge="1" parent="1" source="300kg0JLQjdH8oxCRaky-117" target="300kg0JLQjdH8oxCRaky-122">
          <mxGeometry relative="1" as="geometry">
            <mxPoint x="1370" y="300" as="targetPoint" />
            <Array as="points">
              <mxPoint x="1371" y="230" />
            </Array>
          </mxGeometry>
        </mxCell>
        <mxCell id="300kg0JLQjdH8oxCRaky-116" value="自动支付" style="edgeLabel;html=1;align=center;verticalAlign=middle;resizable=0;points=[];" vertex="1" connectable="0" parent="300kg0JLQjdH8oxCRaky-115">
          <mxGeometry x="-0.225" relative="1" as="geometry">
            <mxPoint as="offset" />
          </mxGeometry>
        </mxCell>
        <mxCell id="300kg0JLQjdH8oxCRaky-117" value="判断任务类型" style="rhombus;whiteSpace=wrap;html=1;rounded=1;" vertex="1" parent="1">
          <mxGeometry x="1200" y="190" width="80" height="80" as="geometry" />
        </mxCell>
        <mxCell id="300kg0JLQjdH8oxCRaky-118" style="edgeStyle=orthogonalEdgeStyle;rounded=0;orthogonalLoop=1;jettySize=auto;html=1;" edge="1" parent="1" source="300kg0JLQjdH8oxCRaky-119" target="300kg0JLQjdH8oxCRaky-120">
          <mxGeometry relative="1" as="geometry" />
        </mxCell>
        <mxCell id="300kg0JLQjdH8oxCRaky-119" value="" style="whiteSpace=wrap;html=1;rounded=1;" vertex="1" parent="1">
          <mxGeometry x="1030" y="300" width="120" height="60" as="geometry" />
        </mxCell>
        <mxCell id="300kg0JLQjdH8oxCRaky-120" value="autoPaySeatForUnseat" style="whiteSpace=wrap;html=1;rounded=1;" vertex="1" parent="1">
          <mxGeometry x="1030" y="480" width="120" height="60" as="geometry" />
        </mxCell>
        <mxCell id="300kg0JLQjdH8oxCRaky-121" value="" style="edgeStyle=orthogonalEdgeStyle;rounded=0;orthogonalLoop=1;jettySize=auto;html=1;" edge="1" parent="1" source="300kg0JLQjdH8oxCRaky-122" target="300kg0JLQjdH8oxCRaky-123">
          <mxGeometry relative="1" as="geometry" />
        </mxCell>
        <mxCell id="300kg0JLQjdH8oxCRaky-122" value="直接支付/占座后支付" style="rhombus;whiteSpace=wrap;html=1;rounded=1;fillColor=#d5e8d4;strokeColor=#82b366;" vertex="1" parent="1">
          <mxGeometry x="1330" y="300" width="80" height="80" as="geometry" />
        </mxCell>
        <mxCell id="300kg0JLQjdH8oxCRaky-141" value="" style="edgeStyle=orthogonalEdgeStyle;rounded=0;orthogonalLoop=1;jettySize=auto;html=1;" edge="1" parent="1" source="300kg0JLQjdH8oxCRaky-123" target="300kg0JLQjdH8oxCRaky-140">
          <mxGeometry relative="1" as="geometry" />
        </mxCell>
        <mxCell id="300kg0JLQjdH8oxCRaky-123" value="占座后自动支付&lt;div&gt;查询出符合条件的占座记录&lt;/div&gt;" style="whiteSpace=wrap;html=1;rounded=1;fillColor=#d5e8d4;strokeColor=#82b366;" vertex="1" parent="1">
          <mxGeometry x="1310" y="480" width="120" height="60" as="geometry" />
        </mxCell>
        <mxCell id="300kg0JLQjdH8oxCRaky-126" value="" style="edgeStyle=orthogonalEdgeStyle;rounded=0;orthogonalLoop=1;jettySize=auto;html=1;" edge="1" parent="1" source="300kg0JLQjdH8oxCRaky-124" target="300kg0JLQjdH8oxCRaky-125">
          <mxGeometry relative="1" as="geometry" />
        </mxCell>
        <mxCell id="300kg0JLQjdH8oxCRaky-124" value="占座后自动支付结果" style="rounded=1;whiteSpace=wrap;html=1;" vertex="1" parent="1">
          <mxGeometry x="2020" y="50" width="120" height="60" as="geometry" />
        </mxCell>
        <mxCell id="300kg0JLQjdH8oxCRaky-131" value="" style="edgeStyle=orthogonalEdgeStyle;rounded=0;orthogonalLoop=1;jettySize=auto;html=1;" edge="1" parent="1" source="300kg0JLQjdH8oxCRaky-125" target="300kg0JLQjdH8oxCRaky-130">
          <mxGeometry relative="1" as="geometry" />
        </mxCell>
        <mxCell id="300kg0JLQjdH8oxCRaky-132" value="失败" style="edgeLabel;html=1;align=center;verticalAlign=middle;resizable=0;points=[];" vertex="1" connectable="0" parent="300kg0JLQjdH8oxCRaky-131">
          <mxGeometry x="-0.3365" y="1" relative="1" as="geometry">
            <mxPoint as="offset" />
          </mxGeometry>
        </mxCell>
        <mxCell id="300kg0JLQjdH8oxCRaky-134" value="" style="edgeStyle=orthogonalEdgeStyle;rounded=0;orthogonalLoop=1;jettySize=auto;html=1;" edge="1" parent="1" source="300kg0JLQjdH8oxCRaky-125" target="300kg0JLQjdH8oxCRaky-133">
          <mxGeometry relative="1" as="geometry" />
        </mxCell>
        <mxCell id="300kg0JLQjdH8oxCRaky-125" value="判断成功/失败" style="rhombus;whiteSpace=wrap;html=1;rounded=1;" vertex="1" parent="1">
          <mxGeometry x="2040" y="180" width="80" height="80" as="geometry" />
        </mxCell>
        <mxCell id="300kg0JLQjdH8oxCRaky-130" value="" style="whiteSpace=wrap;html=1;rounded=1;" vertex="1" parent="1">
          <mxGeometry x="2160" y="320" width="120" height="60" as="geometry" />
        </mxCell>
        <mxCell id="300kg0JLQjdH8oxCRaky-136" value="" style="edgeStyle=orthogonalEdgeStyle;rounded=0;orthogonalLoop=1;jettySize=auto;html=1;" edge="1" parent="1" source="300kg0JLQjdH8oxCRaky-133" target="300kg0JLQjdH8oxCRaky-135">
          <mxGeometry relative="1" as="geometry" />
        </mxCell>
        <mxCell id="300kg0JLQjdH8oxCRaky-159" value="单程" style="edgeLabel;html=1;align=center;verticalAlign=middle;resizable=0;points=[];" vertex="1" connectable="0" parent="300kg0JLQjdH8oxCRaky-136">
          <mxGeometry x="-0.3737" y="-3" relative="1" as="geometry">
            <mxPoint as="offset" />
          </mxGeometry>
        </mxCell>
        <mxCell id="300kg0JLQjdH8oxCRaky-138" value="" style="edgeStyle=orthogonalEdgeStyle;rounded=0;orthogonalLoop=1;jettySize=auto;html=1;" edge="1" parent="1" source="300kg0JLQjdH8oxCRaky-133" target="300kg0JLQjdH8oxCRaky-139">
          <mxGeometry relative="1" as="geometry">
            <mxPoint x="2070.0526315789475" y="470.05263157894774" as="targetPoint" />
          </mxGeometry>
        </mxCell>
        <mxCell id="300kg0JLQjdH8oxCRaky-160" value="往返" style="edgeLabel;html=1;align=center;verticalAlign=middle;resizable=0;points=[];" vertex="1" connectable="0" parent="300kg0JLQjdH8oxCRaky-138">
          <mxGeometry x="0.4105" y="3" relative="1" as="geometry">
            <mxPoint as="offset" />
          </mxGeometry>
        </mxCell>
        <mxCell id="300kg0JLQjdH8oxCRaky-133" value="单程/往返" style="rhombus;whiteSpace=wrap;html=1;rounded=1;" vertex="1" parent="1">
          <mxGeometry x="1910" y="310" width="80" height="80" as="geometry" />
        </mxCell>
        <mxCell id="300kg0JLQjdH8oxCRaky-149" value="" style="edgeStyle=orthogonalEdgeStyle;rounded=0;orthogonalLoop=1;jettySize=auto;html=1;" edge="1" parent="1" source="300kg0JLQjdH8oxCRaky-135" target="300kg0JLQjdH8oxCRaky-148">
          <mxGeometry relative="1" as="geometry" />
        </mxCell>
        <mxCell id="300kg0JLQjdH8oxCRaky-153" style="edgeStyle=orthogonalEdgeStyle;rounded=0;orthogonalLoop=1;jettySize=auto;html=1;entryX=1;entryY=0.5;entryDx=0;entryDy=0;" edge="1" parent="1" source="300kg0JLQjdH8oxCRaky-135" target="300kg0JLQjdH8oxCRaky-150">
          <mxGeometry relative="1" as="geometry" />
        </mxCell>
        <mxCell id="300kg0JLQjdH8oxCRaky-135" value="分开出/一起出" style="rhombus;whiteSpace=wrap;html=1;rounded=1;fillColor=#d5e8d4;strokeColor=#82b366;" vertex="1" parent="1">
          <mxGeometry x="1910" y="470" width="80" height="80" as="geometry" />
        </mxCell>
        <mxCell id="300kg0JLQjdH8oxCRaky-139" value="分开出/一起出" style="rhombus;whiteSpace=wrap;html=1;rounded=1;fillColor=#d5e8d4;strokeColor=#82b366;" vertex="1" parent="1">
          <mxGeometry x="2070" y="470" width="80" height="80" as="geometry" />
        </mxCell>
        <mxCell id="300kg0JLQjdH8oxCRaky-140" value="发起占座任务" style="whiteSpace=wrap;html=1;rounded=1;fillColor=#d5e8d4;strokeColor=#82b366;" vertex="1" parent="1">
          <mxGeometry x="1310" y="620" width="120" height="60" as="geometry" />
        </mxCell>
        <mxCell id="300kg0JLQjdH8oxCRaky-154" style="edgeStyle=orthogonalEdgeStyle;rounded=0;orthogonalLoop=1;jettySize=auto;html=1;entryX=0;entryY=0.5;entryDx=0;entryDy=0;" edge="1" parent="1" source="300kg0JLQjdH8oxCRaky-148" target="300kg0JLQjdH8oxCRaky-150">
          <mxGeometry relative="1" as="geometry" />
        </mxCell>
        <mxCell id="300kg0JLQjdH8oxCRaky-158" value="" style="edgeStyle=orthogonalEdgeStyle;rounded=0;orthogonalLoop=1;jettySize=auto;html=1;" edge="1" parent="1" source="300kg0JLQjdH8oxCRaky-148" target="300kg0JLQjdH8oxCRaky-157">
          <mxGeometry relative="1" as="geometry" />
        </mxCell>
        <mxCell id="300kg0JLQjdH8oxCRaky-148" value="分开出判断是否全部乘客已经支付" style="rhombus;whiteSpace=wrap;html=1;rounded=1;fillColor=#d5e8d4;strokeColor=#82b366;" vertex="1" parent="1">
          <mxGeometry x="1800" y="555" width="80" height="80" as="geometry" />
        </mxCell>
        <mxCell id="300kg0JLQjdH8oxCRaky-150" value="支付全部成功&lt;div&gt;回填&lt;/div&gt;" style="whiteSpace=wrap;html=1;rounded=1;fillColor=#d5e8d4;strokeColor=#82b366;" vertex="1" parent="1">
          <mxGeometry x="1900" y="790" width="120" height="60" as="geometry" />
        </mxCell>
        <mxCell id="300kg0JLQjdH8oxCRaky-157" value="部分支付成功&lt;div&gt;不回填&lt;/div&gt;" style="whiteSpace=wrap;html=1;rounded=1;fillColor=#d5e8d4;strokeColor=#82b366;" vertex="1" parent="1">
          <mxGeometry x="1730" y="790" width="120" height="60" as="geometry" />
        </mxCell>
      </root>
    </mxGraphModel>
  </diagram>
</mxfile>
